HIERARCHY
ROOT Root
{
  OFFSET 0.0 0.0 0.0
  CHANNELS 6 Xposition Yposition Zposition Zrotation Yrotation Xrotation
  JOINT Hips
  {
    OFFSET 0.0 100.0 0.0
    CHANNELS 6 Xposition Yposition Zposition Zrotation Yrotation Xrotation
    JOINT Spine1
    {
      OFFSET -0.013727 5.003763 -0.053727
      CHANNELS 3 Zrotation Yrotation Xrotation
      JOINT Spine2
      {
        OFFSET -0.0 7.125301 -0.029825
        CHANNELS 3 Zrotation Yrotation Xrotation
        JOINT Chest
        {
          OFFSET -1e-06 7.550063 -0.815971
          CHANNELS 3 Zrotation Yrotation Xrotation
          JOINT Neck1
          {
            OFFSET -0.181677 26.311295 -0.553348
            CHANNELS 3 Zrotation Yrotation Xrotation
            JOINT Neck2
            {
              OFFSET -3e-06 7.709397 2.302585
              CHANNELS 3 Zrotation Yrotation Xrotation
              JOINT Head
              {
                OFFSET -5e-06 6.128916 1.953709
                CHANNELS 3 Zrotation Yrotation Xrotation
                JOINT HeadEnd
                {
                  OFFSET 0.003598 16.065403 -1.835379
                  CHANNELS 3 Zrotation Yrotation Xrotation
                }
                JOINT Jaw
                {
                  OFFSET 0.002637 0.475592 3.094941
                  CHANNELS 3 Zrotation Yrotation Xrotation
                }
                JOINT LeftEye
                {
                  OFFSET 3.206381 5.380205 7.586883
                  CHANNELS 3 Zrotation Yrotation Xrotation
                }
                JOINT RightEye
                {
                  OFFSET -3.22244 5.361869 7.558234
                  CHANNELS 3 Zrotation Yrotation Xrotation
                }
              }
            }
          }
          JOINT LeftShoulder
          {
            OFFSET 1.621652 23.237164 5.113413
            CHANNELS 3 Zrotation Yrotation Xrotation
            JOINT LeftArm
            {
              OFFSET 14.919846 2e-06 -5.502326
              CHANNELS 3 Zrotation Yrotation Xrotation
              JOINT LeftForeArm
              {
                OFFSET 28.739307 0.0 -0.002588
                CHANNELS 3 Zrotation Yrotation Xrotation
                JOINT LeftHand
                {
                  OFFSET 27.093981 -1e-06 0.002609
                  CHANNELS 3 Zrotation Yrotation Xrotation
                  JOINT LeftHandThumb1
                  {
                    OFFSET 2.276482 -1.392045 3.191413
                    CHANNELS 3 Zrotation Yrotation Xrotation
                    JOINT LeftHandThumb2
                    {
                      OFFSET 4.012836 -1.828127 1.641654
                      CHANNELS 3 Zrotation Yrotation Xrotation
                      JOINT LeftHandThumb3
                      {
                        OFFSET 2.798515 0.0 -3e-06
                        CHANNELS 3 Zrotation Yrotation Xrotation
                        JOINT LeftHandThumbEnd
                        {
                          OFFSET 3.180793 -4e-06 4e-06
                          CHANNELS 3 Zrotation Yrotation Xrotation
                        }
                      }
                    }
                  }
                  JOINT LeftHandIndex1
                  {
                    OFFSET 3.247555 -0.531998 2.296169
                    CHANNELS 3 Zrotation Yrotation Xrotation
                    JOINT LeftHandIndex2
                    {
                      OFFSET 6.364578 0.01206 0.1786
                      CHANNELS 3 Zrotation Yrotation Xrotation
                      JOINT LeftHandIndex3
                      {
                        OFFSET 3.662364 0.0 0.0
                        CHANNELS 3 Zrotation Yrotation Xrotation
                        JOINT LeftHandIndex4
                        {
                          OFFSET 2.329242 4e-06 4e-06
                          CHANNELS 3 Zrotation Yrotation Xrotation
                          JOINT LeftHandIndexEnd
                          {
                            OFFSET 2.759615 -0.180537 -0.113024
                            CHANNELS 3 Zrotation Yrotation Xrotation
                          }
                        }
                      }
                    }
                  }
                  JOINT LeftHandMiddle1
                  {
                    OFFSET 3.163495 0.240981 1.000332
                    CHANNELS 3 Zrotation Yrotation Xrotation
                    JOINT LeftHandMiddle2
                    {
                      OFFSET 6.19078 -0.259278 -1.002548
                      CHANNELS 3 Zrotation Yrotation Xrotation
                      JOINT LeftHandMiddle3
                      {
                        OFFSET 4.35652 -4e-06 -1e-06
                        CHANNELS 3 Zrotation Yrotation Xrotation
                        JOINT LeftHandMiddle4
                        {
                          OFFSET 2.996877 -8e-06 0.0
                          CHANNELS 3 Zrotation Yrotation Xrotation
                          JOINT LeftHandMiddleEnd
                          {
                            OFFSET 2.304287 -0.294569 -0.031741
                            CHANNELS 3 Zrotation Yrotation Xrotation
                          }
                        }
                      }
                    }
                  }
                  JOINT LeftHandRing1
                  {
                    OFFSET 2.882643 -0.053652 -0.322543
                    CHANNELS 3 Zrotation Yrotation Xrotation
                    JOINT LeftHandRing2
                    {
                      OFFSET 5.854541 -0.486202 -1.373841
                      CHANNELS 3 Zrotation Yrotation Xrotation
                      JOINT LeftHandRing3
                      {
                        OFFSET 4.350578 0.0 3e-06
                        CHANNELS 3 Zrotation Yrotation Xrotation
                        JOINT LeftHandRing4
                        {
                          OFFSET 2.651321 7e-06 2e-06
                          CHANNELS 3 Zrotation Yrotation Xrotation
                          JOINT LeftHandRingEnd
                          {
                            OFFSET 1.936105 0.077687 -7.1e-05
                            CHANNELS 3 Zrotation Yrotation Xrotation
                          }
                        }
                      }
                    }
                  }
                  JOINT LeftHandPinky1
                  {
                    OFFSET 2.8655 -0.310005 -1.600378
                    CHANNELS 3 Zrotation Yrotation Xrotation
                    JOINT LeftHandPinky2
                    {
                      OFFSET 5.087849 -1.331141 -1.77123
                      CHANNELS 3 Zrotation Yrotation Xrotation
                      JOINT LeftHandPinky3
                      {
                        OFFSET 3.070974 4e-06 0.0
                        CHANNELS 3 Zrotation Yrotation Xrotation
                        JOINT LeftHandPinky4
                        {
                          OFFSET 1.549672 0.0 1e-06
                          CHANNELS 3 Zrotation Yrotation Xrotation
                          JOINT LeftHandPinkyEnd
                          {
                            OFFSET 1.944893 -0.157802 0.057219
                            CHANNELS 3 Zrotation Yrotation Xrotation
                          }
                        }
                      }
                    }
                  }
                }
              }
            }
          }
          JOINT RightShoulder
          {
            OFFSET -1.380118 23.180309 5.214158
            CHANNELS 3 Zrotation Yrotation Xrotation
            JOINT RightArm
            {
              OFFSET -15.037196 1.2e-05 -5.545604
              CHANNELS 3 Zrotation Yrotation Xrotation
              JOINT RightForeArm
              {
                OFFSET -28.736639 2e-06 -0.002597
                CHANNELS 3 Zrotation Yrotation Xrotation
                JOINT RightHand
                {
                  OFFSET -27.133619 -0.0 0.002613
                  CHANNELS 3 Zrotation Yrotation Xrotation
                  JOINT RightHandThumb1
                  {
                    OFFSET -2.274032 -1.383988 3.163127
                    CHANNELS 3 Zrotation Yrotation Xrotation
                    JOINT RightHandThumb2
                    {
                      OFFSET -4.011429 -1.827466 1.640914
                      CHANNELS 3 Zrotation Yrotation Xrotation
                      JOINT RightHandThumb3
                      {
                        OFFSET -2.794935 -4e-06 -3e-06
                        CHANNELS 3 Zrotation Yrotation Xrotation
                        JOINT RightHandThumbEnd
                        {
                          OFFSET -3.183852 4e-06 1e-06
                          CHANNELS 3 Zrotation Yrotation Xrotation
                        }
                      }
                    }
                  }
                  JOINT RightHandIndex1
                  {
                    OFFSET -3.253266 -0.520057 2.282866
                    CHANNELS 3 Zrotation Yrotation Xrotation
                    JOINT RightHandIndex2
                    {
                      OFFSET -6.341917 0.012471 0.178266
                      CHANNELS 3 Zrotation Yrotation Xrotation
                      JOINT RightHandIndex3
                      {
                        OFFSET -3.654871 -8e-06 -0.0
                        CHANNELS 3 Zrotation Yrotation Xrotation
                        JOINT RightHandIndex4
                        {
                          OFFSET -2.327586 0.0 1e-06
                          CHANNELS 3 Zrotation Yrotation Xrotation
                          JOINT RightHandIndexEnd
                          {
                            OFFSET -2.76179 -0.180656 -0.113078
                            CHANNELS 3 Zrotation Yrotation Xrotation
                          }
                        }
                      }
                    }
                  }
                  JOINT RightHandMiddle1
                  {
                    OFFSET -3.168106 0.246593 1.00103
                    CHANNELS 3 Zrotation Yrotation Xrotation
                    JOINT RightHandMiddle2
                    {
                      OFFSET -6.180828 -0.258836 -1.000895
                      CHANNELS 3 Zrotation Yrotation Xrotation
                      JOINT RightHandMiddle3
                      {
                        OFFSET -4.348901 0.0 -0.0
                        CHANNELS 3 Zrotation Yrotation Xrotation
                        JOINT RightHandMiddle4
                        {
                          OFFSET -3.00024 -4e-06 -2e-06
                          CHANNELS 3 Zrotation Yrotation Xrotation
                          JOINT RightHandMiddleEnd
                          {
                            OFFSET -2.30252 -0.29437 -0.031706
                            CHANNELS 3 Zrotation Yrotation Xrotation
                          }
                        }
                      }
                    }
                  }
                  JOINT RightHandRing1
                  {
                    OFFSET -2.88569 -0.067952 -0.308858
                    CHANNELS 3 Zrotation Yrotation Xrotation
                    JOINT RightHandRing2
                    {
                      OFFSET -5.854198 -0.48613 -1.373731
                      CHANNELS 3 Zrotation Yrotation Xrotation
                      JOINT RightHandRing3
                      {
                        OFFSET -4.33881 -4e-06 -0.0
                        CHANNELS 3 Zrotation Yrotation Xrotation
                        JOINT RightHandRing4
                        {
                          OFFSET -2.654903 -4e-06 4e-06
                          CHANNELS 3 Zrotation Yrotation Xrotation
                          JOINT RightHandRingEnd
                          {
                            OFFSET -1.933568 0.077527 -5.2e-05
                            CHANNELS 3 Zrotation Yrotation Xrotation
                          }
                        }
                      }
                    }
                  }
                  JOINT RightHandPinky1
                  {
                    OFFSET -2.866425 -0.342796 -1.584145
                    CHANNELS 3 Zrotation Yrotation Xrotation
                    JOINT RightHandPinky2
                    {
                      OFFSET -5.091371 -1.332055 -1.772385
                      CHANNELS 3 Zrotation Yrotation Xrotation
                      JOINT RightHandPinky3
                      {
                        OFFSET -3.062664 -4e-06 1e-06
                        CHANNELS 3 Zrotation Yrotation Xrotation
                        JOINT RightHandPinky4
                        {
                          OFFSET -1.546529 4e-06 -2e-06
                          CHANNELS 3 Zrotation Yrotation Xrotation
                          JOINT RightHandPinkyEnd
                          {
                            OFFSET -1.945119 -0.157718 0.057211
                            CHANNELS 3 Zrotation Yrotation Xrotation
                          }
                        }
                      }
                    }
                  }
                }
              }
            }
          }
        }
      }
    }
    JOINT LeftLeg
    {
      OFFSET 10.043214 -8.434526 2.595655
      CHANNELS 3 Zrotation Yrotation Xrotation
      JOINT LeftShin
      {
        OFFSET -1e-06 -43.221752 -0.802913
        CHANNELS 3 Zrotation Yrotation Xrotation
        JOINT LeftFoot
        {
          OFFSET 1e-06 -42.155094 -3.481523
          CHANNELS 3 Zrotation Yrotation Xrotation
          JOINT LeftToeBase
          {
            OFFSET 0.0 -5.059472 13.231529
            CHANNELS 3 Zrotation Yrotation Xrotation
            JOINT LeftToeEnd
            {
              OFFSET -0.009607 -1.647619 6.513017
              CHANNELS 3 Zrotation Yrotation Xrotation
            }
          }
        }
      }
    }
    JOINT RightLeg
    {
      OFFSET -10.047278 -8.29526 2.620317
      CHANNELS 3 Zrotation Yrotation Xrotation
      JOINT RightShin
      {
        OFFSET 1e-06 -43.362206 -0.805556
        CHANNELS 3 Zrotation Yrotation Xrotation
        JOINT RightFoot
        {
          OFFSET 2e-06 -42.117393 -3.478398
          CHANNELS 3 Zrotation Yrotation Xrotation
          JOINT RightToeBase
          {
            OFFSET -0.0 -5.079609 13.284196
            CHANNELS 3 Zrotation Yrotation Xrotation
            JOINT RightToeEnd
            {
              OFFSET 0.009532 -1.634378 6.460591
              CHANNELS 3 Zrotation Yrotation Xrotation
            }
          }
        }
      }
    }
  }
}
MOTION
Frames: 4
Frame Time: 0.03333333333333333
0.0 0.0 0.0 0.0 -0.0 0.0 -11.770762 97.657082 283.113251 -1.828249 -7.861537 -2.868889 1.991019 0.255635 -0.39117 -0.269997 1.52803 -4.993608 -0.406053 -0.392865 12.28575 -2.201391 3.622594 4.36895 -0.510943 0.180711 -3.56185 2.202757 -1.757232 -5.861524 7.7e-05 -2.3e-05 6e-06 0.011423 0.110372 0.013416 0.723317 -3.60952 -10.618925 -0.708754 3.826638 -10.65517 -15.146936 -3.774494 15.205397 -63.250141 2.160294 5.209693 0.462098 -29.907053 -0.068913 2.321671 0.749312 2.90142 -5.882113 9.861295 0.702592 -10.936883 -0.360575 7.156211 1e-06 8.774835 -1e-06 -16.242561 18.034435 5.914831 -1.844035 2.498507 -2.507278 -10.163611 4.678949 4.621111 -20.976044 -3e-06 3e-06 -21.226311 2.451701 -3.594003 -0.0 -6e-06 -0.0 -1.362683 2.2408 -0.746323 -21.334938 0.58491 3.008326 -13.821227 -2e-06 2e-06 -23.887192 -0.249078 -0.839484 -60.601994 2.623945 -0.978741 -0.294025 1.679689 0.833255 -14.218225 0.093215 1.300581 -34.212086 -0.287565 0.96717 -20.033236 0.964538 1.212844 -2e-06 -1e-06 0.0 -3.440392 0.788234 0.501655 -15.928205 -3.167313 2.999709 -6.338833 -1e-06 0.0 -18.123468 3.648185 -4.905674 -2e-06 -0.0 -4e-06 12.181264 13.58453 16.737869 53.69931 23.755009 19.183794 -0.191765 32.589016 -0.011711 -8.837626 4.794011 -5.65332 2.243543 -5.255041 -3.180158 14.282897 -0.826595 6.952505 -2e-06 -12.690612 1e-06 16.000372 -17.85116 2.711634 1.665668 -1.955922 -2.8783 4.727801 -4.170591 4.993925 11.020531 3e-06 -1e-06 12.109059 -3.735717 -2.866785 -1e-06 1e-06 -0.0 1.291988 -1.928553 -1.498092 14.800136 0.567467 3.865607 14.24258 -1.341736 -6.660661 19.631975 0.143928 -0.648247 49.590721 -0.819933 -6.389991 0.35303 -1.511152 -0.031939 20.222801 3.684312 2.316629 18.787283 3e-06 -2e-06 10.751633 -0.479868 1.397906 1e-06 1e-06 -1e-06 3.273808 0.305948 -0.580112 21.486822 11.83038 2.266133 8.162933 2e-06 -2e-06 18.399092 -3.798988 -4.940578 2e-06 -2e-06 -2e-06 1.411449 3.581044 -25.832293 0.272717 0.416622 22.71529 -1.720062 9.740566 6.9422 1.737399 -2.073674 -4.64962 0.0 -0.0 2e-06 7.899215 3.030016 14.009833 -0.140528 -0.06181 2.378368 -6.705775 -4.118084 -10.950916 -1.445851 0.853607 -0.843573 -0.0 -0.0 -1e-06 
0.0 0.0 0.0 0.0 -0.0 0.0 -12.016514 96.8228 288.037109 -2.263143 -8.892282 -2.253906 2.36623 0.262847 -0.840761 -0.137455 1.638765 -5.218217 -0.085627 -0.153546 12.44173 -3.265005 4.120823 4.223131 -0.548937 0.321947 -3.576103 1.991756 -1.271311 -5.586147 7.7e-05 -2.2e-05 6e-06 0.014498 0.130417 0.028948 0.732171 -3.604041 -10.665237 -0.713667 3.861938 -10.69411 -16.162136 -2.911479 15.033563 -62.866585 2.603331 5.212398 0.373591 -30.248034 -0.037389 2.150339 0.709124 3.194949 -5.882106 9.861282 0.70259 -10.936873 -0.360576 7.156208 3e-06 8.774823 -2e-06 -16.07802 18.141195 6.029321 -1.844032 2.498503 -2.507279 -10.163601 4.678941 4.62111 -20.976027 -8e-06 4e-06 -21.226292 2.45169 -3.593997 1e-06 -6e-06 -0.0 -1.362681 2.240797 -0.746324 -21.334917 0.584905 3.008325 -13.821217 -5e-06 4e-06 -23.887175 -0.249084 -0.839478 -60.700348 2.642874 -0.931801 -0.294025 1.679686 0.833255 -14.218212 0.093212 1.300581 -34.212063 -0.287569 0.967176 -20.033218 0.964536 1.212847 -1e-06 -0.0 -1e-06 -3.440389 0.788232 0.501657 -15.928189 -3.167311 2.999707 -6.338828 -2e-06 3e-06 -18.123447 3.648177 -4.905667 -2e-06 0.0 -2e-06 12.000521 14.32018 16.724606 52.406235 24.660995 18.498722 -0.329424 33.917175 -0.09121 -9.371428 4.890636 -6.423152 2.243541 -5.255037 -3.180157 14.282895 -0.826593 6.952507 -4e-06 -12.690604 -0.0 15.953895 -17.879263 2.729517 1.665666 -1.955921 -2.878298 4.727799 -4.170587 4.993924 11.020526 3e-06 2e-06 12.109052 -3.735714 -2.866785 -0.0 1e-06 -0.0 1.291985 -1.928549 -1.498088 14.800131 0.56747 3.86561 14.242571 -1.341735 -6.660655 19.631968 0.143927 -0.648243 49.719452 -0.910265 -6.36458 0.353029 -1.511151 -0.031939 20.222797 3.684312 2.316634 18.787279 5e-06 3e-06 10.751631 -0.479867 1.39791 0.0 2e-06 -2e-06 3.273807 0.305947 -0.58011 21.48682 11.830378 2.266137 8.16293 3e-06 0.0 18.399084 -3.798985 -4.940572 2e-06 -1e-06 -2e-06 1.094223 5.001529 -25.322523 0.040554 0.361807 8.275178 -3.421428 8.903979 6.675613 1.658461 -2.112449 -4.288773 0.0 -0.0 3e-06 7.871548 2.288011 16.7465 -0.155025 -0.158531 2.215456 -6.436755 -3.055315 -11.902802 -1.438329 0.837466 -1.945091 -0.0 -0.0 -1e-06 
0.0 0.0 0.0 0.0 -0.0 0.0 -12.20848 95.870193 292.995148 -2.67882 -9.720425 -1.298739 2.534878 0.211398 -1.557164 0.005994 1.764367 -5.464658 0.4003 -0.120623 12.593689 -4.167768 4.494352 3.636079 -0.548069 0.589087 -3.562523 1.640029 -0.878984 -5.039076 7.7e-05 -2.2e-05 6e-06 0.010501 0.077286 0.045874 0.709775 -3.664529 -10.656936 -0.701171 3.816101 -10.679545 -17.533161 -2.260333 14.792348 -62.267166 2.808787 5.312678 0.398586 -30.027578 -0.011465 2.237432 0.10029 2.860205 -5.88211 9.86129 0.702591 -10.936878 -0.360576 7.15621 1e-06 8.77483 -1e-06 -16.031597 18.204651 5.956949 -1.844033 2.498505 -2.507278 -10.163608 4.678946 4.621111 -20.976038 -6e-06 3e-06 -21.226301 2.451695 -3.593999 -0.0 -6e-06 -0.0 -1.362682 2.240799 -0.746323 -21.33493 0.584908 3.008323 -13.821225 -4e-06 3e-06 -23.887186 -0.24908 -0.839483 -60.781204 2.610229 -1.054128 -0.294025 1.679689 0.833256 -14.218221 0.093214 1.30058 -34.212078 -0.287567 0.967171 -20.03323 0.964533 1.212844 0.0 -1e-06 -1e-06 -3.440391 0.788234 0.501656 -15.928201 -3.167313 2.999707 -6.33883 -2e-06 2e-06 -18.123461 3.648182 -4.905672 -3e-06 0.0 -2e-06 12.329775 14.885081 16.634281 50.733997 25.219007 18.37141 -0.103204 34.491104 0.02675 -9.454775 5.02586 -6.572341 2.243542 -5.255039 -3.180159 14.282896 -0.826593 6.952507 -3e-06 -12.690612 2e-06 15.790947 -17.968622 2.76849 1.665666 -1.955922 -2.878301 4.727799 -4.170588 4.993929 11.020528 6e-06 -1e-06 12.109054 -3.735715 -2.866785 -0.0 -0.0 -0.0 1.291987 -1.92855 -1.498089 14.800132 0.567468 3.865608 14.242575 -1.341734 -6.66066 19.631973 0.143929 -0.648244 49.676884 -0.897048 -6.460476 0.353028 -1.51115 -0.03194 20.222797 3.684313 2.316631 18.787279 7e-06 0.0 10.75163 -0.479866 1.397907 0.0 1e-06 -0.0 3.273808 0.305947 -0.580111 21.486826 11.830385 2.266133 8.16293 3e-06 -1e-06 18.399088 -3.798986 -4.940574 3e-06 -1e-06 -1e-06 0.684764 5.787299 -25.826643 -0.104077 0.167678 -1.426588 -5.820884 8.787388 4.299381 1.492914 -2.213661 -4.582003 -0.0 0.0 2e-06 7.329501 1.056158 18.924229 -0.123348 -0.288551 2.551844 -5.666001 -1.37969 -12.565981 -1.423829 0.730916 -3.278194 0.0 -0.0 -1e-06 
0.0 0.0 0.0 0.0 -0.0 0.0 -12.330465 94.96904 297.981873 -2.608094 -10.171141 -0.399788 2.311807 0.273955 -2.095751 0.049099 1.750885 -5.701321 0.653063 -0.168656 12.634877 -4.62032 4.633135 2.713253 -0.43413 0.616533 -3.525687 1.256607 -0.527782 -4.64939 7.7e-05 -2.2e-05 6e-06 0.005099 -0.018833 0.038544 0.710437 -3.753937 -10.632253 -0.714009 3.714317 -10.658179 -18.534533 -2.110159 14.685341 -61.797508 2.597107 5.603427 0.440253 -29.176428 0.04217 2.510091 -0.402982 2.661865 -5.88211 9.861288 0.702589 -10.936877 -0.360575 7.156207 1e-06 8.774828 -2e-06 -16.138075 18.126345 5.796688 -1.844034 2.498505 -2.507278 -10.163606 4.678946 4.621108 -20.976038 -4e-06 1e-06 -21.226299 2.451696 -3.594001 1e-06 -6e-06 -1e-06 -1.362683 2.240799 -0.746323 -21.334927 0.584909 3.00832 -13.821221 -3e-06 2e-06 -23.887184 -0.24908 -0.839485 -60.797367 2.574747 -1.120923 -0.294024 1.679688 0.833257 -14.218215 0.093216 1.30058 -34.212063 -0.287565 0.967167 -20.033224 0.964536 1.212842 -1e-06 -1e-06 -1e-06 -3.44039 0.788234 0.501654 -15.928194 -3.16731 2.999706 -6.33883 -1e-06 2e-06 -18.123453 3.648184 -4.905672 -3e-06 1e-06 -3e-06 12.806921 15.157689 16.519144 49.547138 25.450201 18.559929 0.159648 34.365917 0.192588 -9.008188 5.19962 -6.258027 2.24354 -5.255036 -3.180158 14.282892 -0.826595 6.952505 -3e-06 -12.690609 2e-06 15.73038 -17.971684 2.731105 1.665667 -1.955924 -2.878299 4.727799 -4.170589 4.993924 11.020528 2e-06 -2e-06 12.109055 -3.735717 -2.866784 -0.0 -0.0 -1e-06 1.291985 -1.928548 -1.498089 14.800131 0.567468 3.865611 14.242575 -1.341736 -6.660658 19.631969 0.143925 -0.648244 49.5844 -0.830974 -6.507198 0.353029 -1.511149 -0.031938 20.222797 3.684311 2.316632 18.787273 2e-06 -1e-06 10.751629 -0.479869 1.397905 1e-06 1e-06 -1e-06 3.273807 0.305948 -0.58011 21.486818 11.830377 2.266134 8.162931 1e-06 0.0 18.399088 -3.798984 -4.940575 3e-06 -2e-06 -1e-06 -0.601165 6.344222 -27.756941 -0.039092 0.082119 -2.647022 -8.036579 9.660624 1.238443 1.401714 -2.205673 -4.84407 0.0 0.0 4e-06 5.980266 -0.39624 20.311193 -0.147051 -0.274475 4.282932 -4.401708 0.356377 -12.693914 -1.40075 0.676372 -5.139231 0.0 0.0 -1e-06 
